<svg width="62" height="88" viewBox="0 0 62 88" fill="none" xmlns="http://www.w3.org/2000/svg">
<path d="M47.203 13.0661C47.203 14.8247 46.5794 17.2504 44.0603 17.2504C41.0398 17.2504 41.0398 13.8787 41.0398 13.1753C41.0398 12.4839 41.0398 8.88178 44.1459 8.88178C46.9829 8.88178 47.203 11.9867 47.203 13.0661ZM41.0764 3.6665H39.0465V16.6319L38.9976 18.5603H40.9664L41.0153 16.923C41.2232 17.2504 41.4678 17.6143 42.0792 18.0267C43.0086 18.6452 43.9747 18.7059 44.5005 18.7059C45.9924 18.7059 47.4354 18.0873 48.3036 16.8623C48.8539 16.1589 49.3431 15.0188 49.3431 12.9327C49.3431 10.5676 48.6093 9.50034 48.0713 8.88178C47.0685 7.76597 45.7111 7.49913 44.6228 7.49913C42.1526 7.49913 41.3577 8.85751 41.0764 9.35477V3.6665Z" fill="#168A44"/>
<path d="M52.8525 13.4907C52.8525 12.5205 52.8525 9.11235 56.0931 9.11235C58.5021 9.11235 59.0891 11.1257 59.0891 13.0662C59.0891 13.8424 58.9791 15.3828 58.1964 16.438C57.5116 17.384 56.4232 17.481 55.9096 17.481C53.0481 17.481 52.8525 14.8006 52.8525 13.4907ZM50.9081 22.7084H52.9136V17.3597C53.5006 18.3058 54.6745 18.9607 56.252 18.9607C58.8445 18.9607 61.2047 17.202 61.2047 13.1875C61.2047 9.19723 58.9791 7.6084 56.6434 7.6084C55.7507 7.6084 53.953 7.86311 52.9381 9.5611L52.9014 7.77823H50.8347C50.8836 8.80914 50.9081 9.07597 50.9081 9.54898V22.7084Z" fill="#168A44"/>
<path d="M34.7662 30.1306C33.2376 26.5405 31.3544 23.7995 30.6085 22.6958C29.8625 23.7995 27.9793 26.5405 26.4507 30.1306C27.9426 31.7315 29.4223 33.6236 30.6085 35.7582C31.7824 33.6236 33.2621 31.7315 34.7662 30.1306Z" fill="#168A44"/>
<path d="M26.4507 76.8986C27.9793 80.4887 29.8625 83.2297 30.6085 84.3334C31.3544 83.2297 33.2376 80.4887 34.7662 76.8986C33.2621 75.2855 31.7824 73.4056 30.6085 71.271C29.4223 73.4056 27.9426 75.2855 26.4507 76.8986Z" fill="#168A44"/>
<path d="M26.4506 30.1314C23.7725 27.2812 21.0578 25.3406 19.9816 24.5522C19.6637 25.85 18.8321 29.064 18.6365 32.9573C20.5931 33.9518 22.6353 35.2253 24.4818 36.8263C24.8487 34.4127 25.5946 32.1447 26.4506 30.1314Z" fill="#168A44"/>
<path d="M34.7661 76.899C37.432 79.7492 40.159 81.6898 41.2351 82.4782C41.5531 81.1804 42.3724 77.9664 42.568 74.0731C40.6114 73.0786 38.5692 71.8051 36.7227 70.2041C36.3558 72.6055 35.6221 74.8857 34.7661 76.899Z" fill="#168A44"/>
<path d="M18.6365 32.9568C15.1391 31.1739 11.9229 30.2764 10.6389 29.9004C10.7734 31.2345 11.1158 34.5335 12.2653 38.2569C14.4543 38.5238 16.8144 39.021 19.1012 39.9064C18.6121 37.5292 18.5264 35.1278 18.6365 32.9568Z" fill="#168A44"/>
<path d="M42.5682 74.0726C46.0656 75.8555 49.2818 76.753 50.578 77.1168C50.4313 75.7949 50.1011 72.4959 48.9394 68.7724C46.7626 68.5056 44.4025 67.9962 42.1157 67.1108C42.5926 69.5123 42.6905 71.8895 42.5682 74.0726Z" fill="#168A44"/>
<path d="M15.1025 44.6367C13.8307 42.5506 12.9136 40.3432 12.2655 38.2571C8.37672 37.772 5.03828 38.0145 3.69312 38.0994C4.29232 39.3002 5.74754 42.2838 8.10769 45.3887C10.2599 44.9035 12.6445 44.5761 15.1025 44.6367Z" fill="#168A44"/>
<path d="M46.1025 62.393C47.3866 64.467 48.2915 66.6865 48.9396 68.7726C52.8406 69.2577 56.179 69.0152 57.5119 68.9302C56.925 67.7295 55.4698 64.7459 53.0974 61.6289C50.9573 62.1262 48.5727 62.4536 46.1025 62.393Z" fill="#168A44"/>
<path d="M8.10765 45.3892C4.28006 46.2624 1.2351 47.6208 0 48.1666C0.978299 49.0762 3.37513 51.3928 6.66466 53.5152C8.5112 52.3267 10.6512 51.2108 12.9747 50.4346C11.0548 48.9064 9.44058 47.1357 8.10765 45.3892Z" fill="#168A44"/>
<path d="M54.5402 53.5151C52.6937 54.7037 50.5659 55.8196 48.2424 56.5958C50.1501 58.124 51.7765 59.8947 53.0972 61.6291C56.9371 60.768 59.982 59.3975 61.2049 58.8638C60.2388 57.9542 57.842 55.6255 54.5402 53.5151Z" fill="#168A44"/>
<path d="M12.9747 56.5958C10.6512 55.8196 8.5112 54.7037 6.66466 53.5151C3.37513 55.6255 0.978299 57.9542 0 58.8638C1.2351 59.3975 4.28006 60.768 8.10765 61.6291C9.44058 59.8947 11.0548 58.124 12.9747 56.5958Z" fill="#168A44"/>
<path d="M48.2424 50.4346C50.5659 51.2108 52.6937 52.3267 54.5402 53.5152C57.842 51.3928 60.2388 49.0762 61.2049 48.1666C59.982 47.6208 56.9371 46.2624 53.0972 45.3892C51.7765 47.1357 50.1501 48.9064 48.2424 50.4346Z" fill="#168A44"/>
<path d="M8.10769 61.6289C5.74754 64.7459 4.29232 67.7295 3.69312 68.9302C5.03828 69.0152 8.37672 69.2577 12.2655 68.7726C12.9136 66.6865 13.8307 64.467 15.1025 62.393C12.6445 62.4536 10.2599 62.1262 8.10769 61.6289Z" fill="#168A44"/>
<path d="M53.0974 45.3887C55.4698 42.2838 56.925 39.3002 57.5119 38.0994C56.179 38.0145 52.8406 37.772 48.9396 38.2571C48.2915 40.3432 47.3866 42.5506 46.1025 44.6367C48.5727 44.5761 50.9573 44.9035 53.0974 45.3887Z" fill="#168A44"/>
<path d="M19.1012 67.1108C16.8144 67.9962 14.4543 68.5056 12.2653 68.7724C11.1158 72.4959 10.7734 75.7949 10.6389 77.1168C11.9229 76.753 15.1391 75.8555 18.6365 74.0726C18.5264 71.8895 18.6121 69.5123 19.1012 67.1108Z" fill="#168A44"/>
<path d="M42.1157 39.9064C44.4025 39.021 46.7626 38.5238 48.9394 38.2569C50.1011 34.5335 50.4313 31.2345 50.578 29.9004C49.2818 30.2764 46.0656 31.1739 42.5682 32.9568C42.6905 35.1278 42.5926 37.5171 42.1157 39.9064Z" fill="#168A44"/>
<path d="M18.6365 74.0731C18.8321 77.9664 19.6637 81.1804 19.9816 82.4782C21.0578 81.6898 23.7725 79.7492 26.4506 76.899C25.5946 74.8857 24.8487 72.6055 24.4818 70.2041C22.6353 71.8051 20.5931 73.0786 18.6365 74.0731Z" fill="#168A44"/>
<path d="M42.568 32.9573C42.3724 29.064 41.5531 25.85 41.2351 24.5522C40.159 25.3406 37.432 27.2812 34.7661 30.1314C35.6221 32.1447 36.3558 34.4127 36.7227 36.8263C38.5692 35.2253 40.6114 33.9518 42.568 32.9573Z" fill="#168A44"/>
<path d="M28.4807 41.5316C28.872 39.4455 29.6302 37.5171 30.6085 35.7585C29.4223 33.6239 27.9427 31.7318 26.4508 30.1309C25.5947 32.1442 24.8488 34.4122 24.4819 36.8258C26.0105 38.1478 27.3924 39.7124 28.4807 41.5316Z" fill="#5BB046"/>
<path d="M32.7364 65.498C32.3451 67.572 31.5869 69.5126 30.6086 71.2712C31.7826 73.4058 33.2623 75.2857 34.7664 76.8988C35.6224 74.8855 36.3561 72.6053 36.723 70.2039C35.2066 68.8698 33.8248 67.3173 32.7364 65.498Z" fill="#5BB046"/>
<path d="M19.1015 39.9067C20.9848 40.6465 22.8191 41.6289 24.47 42.9752C24.1276 40.8891 24.1765 38.8151 24.4822 36.826C22.6356 35.2251 20.5934 33.9516 18.6368 32.957C18.5268 35.128 18.6124 37.5295 19.1015 39.9067Z" fill="#5BB046"/>
<path d="M42.1158 67.1106C40.2325 66.3829 38.386 65.3883 36.7351 64.0542C37.0898 66.1403 37.0286 68.2143 36.7229 70.2033C38.5694 71.8043 40.6116 73.0778 42.5682 74.0724C42.6905 71.8892 42.5927 69.512 42.1158 67.1106Z" fill="#5BB046"/>
<path d="M21.2171 45.6921C20.1654 43.8485 19.4928 41.8837 19.1015 39.9068C16.8147 39.0214 14.4546 38.5241 12.2656 38.2573C12.9137 40.3434 13.8309 42.5508 15.1027 44.6369C17.1204 44.6854 19.1993 44.9886 21.2171 45.6921Z" fill="#5BB046"/>
<path d="M40.0002 61.3374C41.0519 63.1809 41.7123 65.1458 42.1158 67.1106C44.4026 67.996 46.7627 68.5054 48.9395 68.7722C48.2913 66.6861 47.3864 64.4666 46.1024 62.3926C44.0846 62.3441 42.018 62.0409 40.0002 61.3374Z" fill="#5BB046"/>
<path d="M12.9747 50.4345C14.8946 49.7796 16.949 49.3793 19.0768 49.3551C17.4627 47.9724 16.1542 46.3472 15.1025 44.6371C12.6445 44.5765 10.2599 44.9039 8.10767 45.3891C9.4406 47.1356 11.0548 48.9063 12.9747 50.4345Z" fill="#5BB046"/>
<path d="M48.2425 56.5952C46.3226 57.238 44.2682 57.6504 42.1282 57.6746C43.7546 59.0452 45.0631 60.6704 46.1025 62.3926C48.5727 62.4533 50.9573 62.1258 53.0974 61.6285C51.7766 59.8942 50.1502 58.1234 48.2425 56.5952Z" fill="#5BB046"/>
<path d="M18.3432 53.5147C16.3377 52.7749 14.5523 51.6833 12.9748 50.4341C10.6514 51.2103 8.51133 52.3261 6.66479 53.5147C8.51133 54.7033 10.6514 55.8191 12.9748 56.5954C14.5523 55.3461 16.3377 54.2546 18.3432 53.5147Z" fill="#5BB046"/>
<path d="M42.874 53.5147C44.8673 54.2546 46.6527 55.3461 48.2424 56.5954C50.5659 55.8191 52.6937 54.7033 54.5402 53.5147C52.6937 52.3261 50.5659 51.2103 48.2424 50.4341C46.6527 51.6833 44.8673 52.7749 42.874 53.5147Z" fill="#5BB046"/>
<path d="M15.1025 62.3926C16.1542 60.6704 17.4627 59.0452 19.0768 57.6746C16.949 57.6504 14.8946 57.238 12.9747 56.5952C11.0548 58.1234 9.4406 59.8942 8.10767 61.6285C10.2599 62.1258 12.6445 62.4533 15.1025 62.3926Z" fill="#5BB046"/>
<path d="M46.1025 44.6371C45.0631 46.3472 43.7546 47.9724 42.1282 49.3551C44.2682 49.3793 46.3226 49.7796 48.2425 50.4345C50.1502 48.9063 51.7766 47.1356 53.0974 45.3891C50.9573 44.9039 48.5727 44.5765 46.1025 44.6371Z" fill="#5BB046"/>
<path d="M21.2171 61.3374C19.1993 62.0409 17.1204 62.3441 15.1027 62.3926C13.8309 64.4666 12.9137 66.6861 12.2656 68.7722C14.4546 68.5054 16.8147 67.996 19.1015 67.1106C19.4928 65.1458 20.1654 63.1809 21.2171 61.3374Z" fill="#5BB046"/>
<path d="M40.0002 45.6921C42.018 44.9886 44.0846 44.6854 46.1024 44.6369C47.3864 42.5508 48.2913 40.3434 48.9395 38.2573C46.7627 38.5241 44.4026 39.0214 42.1158 39.9068C41.7123 41.8837 41.0519 43.8485 40.0002 45.6921Z" fill="#5BB046"/>
<path d="M28.4807 65.498C27.3924 67.3173 26.0105 68.8698 24.4819 70.2039C24.8488 72.6053 25.5947 74.8855 26.4508 76.8988C27.9427 75.2857 29.4223 73.4058 30.6085 71.2712C29.6302 69.5126 28.872 67.572 28.4807 65.498Z" fill="#5BB046"/>
<path d="M24.47 64.0542C22.8191 65.3883 20.9848 66.3829 19.1015 67.1106C18.6124 69.512 18.5268 71.8892 18.6368 74.0724C20.5934 73.0778 22.6356 71.8043 24.4822 70.2033C24.1765 68.2143 24.1276 66.1403 24.47 64.0542Z" fill="#5BB046"/>
<path d="M32.7364 41.5316C33.8248 39.7124 35.2066 38.1478 36.723 36.8258C36.3561 34.4122 35.6224 32.1442 34.7664 30.1309C33.2623 31.7318 31.7826 33.6239 30.6086 35.7585C31.5869 37.5171 32.3451 39.4455 32.7364 41.5316Z" fill="#5BB046"/>
<path d="M36.7351 42.9752C38.386 41.6289 40.2325 40.6465 42.1158 39.9067C42.5927 37.5174 42.6905 35.128 42.5682 32.957C40.6116 33.9516 38.5694 35.2251 36.7229 36.826C37.0286 38.8151 37.0898 40.8891 36.7351 42.9752Z" fill="#5BB046"/>
<path d="M28.4809 47.7415C27.3925 45.801 26.0107 44.2364 24.4699 42.975C24.8 44.9277 25.4726 46.8925 26.6221 48.7967C24.9223 47.3534 23.088 46.3468 21.217 45.6918C22.1831 47.4141 23.5038 49.0272 25.2403 50.4341C23.1369 49.6578 21.0703 49.3304 19.077 49.3546C20.5933 50.6402 22.3787 51.7075 24.4943 52.4474C22.2565 52.4231 20.202 52.8113 18.3433 53.5147C20.202 54.206 22.2565 54.6063 24.4943 54.582C22.3787 55.3218 20.5933 56.3891 19.077 57.6748C21.0703 57.699 23.1369 57.3715 25.2403 56.5832C23.5038 58.0022 22.1831 59.6032 21.217 61.3376C23.088 60.6705 24.9223 59.676 26.6221 58.2206C25.4726 60.1368 24.8 62.1017 24.4699 64.0544C26.0107 62.793 27.3925 61.2284 28.4809 59.2879C28.0651 61.471 28.114 63.545 28.4809 65.4977C29.4959 63.7875 30.2418 61.8591 30.6087 59.6639C30.9755 61.8591 31.7215 63.7875 32.7365 65.4977C33.1033 63.545 33.14 61.471 32.7243 59.2879C33.8248 61.2284 35.1945 62.793 36.7353 64.0544C36.4173 62.1017 35.7325 60.1368 34.583 58.2206C36.295 59.676 38.1171 60.6705 40.0004 61.3376C39.0221 59.6032 37.7136 58.0022 35.9771 56.5832C38.0804 57.3715 40.1349 57.699 42.1282 57.6748C40.6118 56.3891 38.8264 55.3218 36.7108 54.582C38.9609 54.6063 41.0031 54.206 42.8741 53.5147C41.0031 52.8113 38.9609 52.4231 36.7108 52.4474C38.8264 51.7075 40.6118 50.6402 42.1282 49.3546C40.1349 49.3304 38.0804 49.6578 35.9771 50.4341C37.7136 49.0272 39.0221 47.4141 40.0004 45.6918C38.1171 46.3468 36.295 47.3534 34.583 48.7967C35.7325 46.8925 36.4173 44.9277 36.7353 42.975C35.1945 44.2364 33.8248 45.801 32.7243 47.7415C33.14 45.5463 33.1033 43.4723 32.7365 41.5317C31.7215 43.2297 30.9755 45.1703 30.6087 47.3656C30.2418 45.1703 29.4959 43.2297 28.4809 41.5317C28.114 43.4723 28.0651 45.5463 28.4809 47.7415Z" fill="white"/>
<path d="M28.4807 47.7418C28.0649 45.5466 28.1138 43.4726 28.4807 41.532C27.3923 39.7128 26.0105 38.1482 24.4819 36.8262C24.1762 38.8152 24.1272 40.8892 24.4696 42.9753C26.0105 44.2367 27.3923 45.8013 28.4807 47.7418Z" fill="#FEDC00"/>
<path d="M32.7241 59.2881C33.1399 61.4712 33.1032 63.5452 32.7364 65.4979C33.8247 67.3172 35.2066 68.8696 36.7229 70.2037C37.0286 68.2146 37.0898 66.1407 36.7351 64.0546C35.1943 62.7932 33.8247 61.2286 32.7241 59.2881Z" fill="#FEDC00"/>
<path d="M24.4697 42.9752C22.8189 41.629 20.9845 40.6466 19.1013 39.9067C19.4926 41.8837 20.1652 43.8485 21.2169 45.692C23.0879 46.347 24.9222 47.3536 26.622 48.7969C25.4725 46.8927 24.7999 44.9279 24.4697 42.9752Z" fill="#FEDC00"/>
<path d="M36.735 64.0545C38.3859 65.3886 40.2324 66.3832 42.1157 67.1109C41.7121 65.1461 41.0518 63.1813 40.0001 61.3377C38.1169 60.6707 36.2948 59.6761 34.5828 58.2207C35.7323 60.137 36.4171 62.1018 36.735 64.0545Z" fill="#FEDC00"/>
<path d="M25.2402 50.4346C23.5037 49.0277 22.183 47.4146 21.2169 45.6924C19.1992 44.9889 17.1203 44.6857 15.1025 44.6372C16.1542 46.3473 17.4627 47.9725 19.0769 49.3552C21.0702 49.3309 23.1368 49.6584 25.2402 50.4346Z" fill="#FEDC00"/>
<path d="M35.9771 56.5835C37.7135 58.0025 39.022 59.6035 40.0003 61.3379C42.018 62.0413 44.0847 62.3446 46.1024 62.3931C45.063 60.6708 43.7545 59.0456 42.1281 57.6751C40.1348 57.6993 38.0804 57.3718 35.9771 56.5835Z" fill="#FEDC00"/>
<path d="M24.4941 52.4478C22.3785 51.7079 20.5931 50.6406 19.0767 49.355C16.9489 49.3792 14.8945 49.7795 12.9746 50.4344C14.5521 51.6837 16.3375 52.7752 18.343 53.5151C20.2018 52.8116 22.2562 52.4235 24.4941 52.4478Z" fill="#FEDC00"/>
<path d="M36.7107 54.5824C38.8263 55.3223 40.6117 56.3896 42.128 57.6752C44.2681 57.651 46.3225 57.2386 48.2424 56.5958C46.6527 55.3466 44.8673 54.255 42.874 53.5151C41.003 54.2065 38.9608 54.6067 36.7107 54.5824Z" fill="#FEDC00"/>
<path d="M18.343 53.5151C16.3375 54.255 14.5521 55.3466 12.9746 56.5958C14.8945 57.2386 16.9489 57.651 19.0767 57.6752C20.5931 56.3896 22.3785 55.3223 24.4941 54.5824C22.2562 54.6067 20.2018 54.2065 18.343 53.5151Z" fill="#FEDC00"/>
<path d="M42.874 53.5151C44.8673 52.7752 46.6527 51.6837 48.2424 50.4344C46.3225 49.7795 44.2681 49.3792 42.128 49.355C40.6117 50.6406 38.8263 51.7079 36.7107 52.4478C38.9608 52.4235 41.003 52.8116 42.874 53.5151Z" fill="#FEDC00"/>
<path d="M25.2402 56.5835C23.1368 57.3718 21.0702 57.6993 19.0769 57.6751C17.4627 59.0456 16.1542 60.6708 15.1025 62.3931C17.1203 62.3446 19.1992 62.0413 21.2169 61.3379C22.183 59.6035 23.5037 58.0025 25.2402 56.5835Z" fill="#FEDC00"/>
<path d="M35.9771 50.4346C38.0804 49.6584 40.1348 49.3309 42.1281 49.3552C43.7545 47.9725 45.063 46.3473 46.1024 44.6372C44.0847 44.6857 42.018 44.9889 40.0003 45.6924C39.022 47.4146 37.7135 49.0277 35.9771 50.4346Z" fill="#FEDC00"/>
<path d="M28.481 65.4979C28.8723 67.5718 29.6305 69.5124 30.6088 71.271C31.5871 69.5124 32.3452 67.5718 32.7366 65.4979C31.7216 63.7878 30.9756 61.8593 30.6088 59.6641C30.2419 61.8593 29.4959 63.7878 28.481 65.4979Z" fill="#FEDC00"/>
<path d="M28.4807 59.2881C27.3923 61.2286 26.0105 62.7932 24.4696 64.0546C24.1272 66.1407 24.1762 68.2146 24.4819 70.2037C26.0105 68.8696 27.3923 67.3172 28.4807 65.4979C28.1138 63.5452 28.0649 61.4712 28.4807 59.2881Z" fill="#FEDC00"/>
<path d="M21.2169 61.3377C20.1652 63.1813 19.4926 65.1461 19.1013 67.1109C20.9845 66.3832 22.8189 65.3886 24.4697 64.0545C24.7999 62.1018 25.4725 60.137 26.622 58.2207C24.9222 59.6761 23.0879 60.6707 21.2169 61.3377Z" fill="#FEDC00"/>
<path d="M32.7363 41.5324C32.345 39.4463 31.5868 37.5179 30.6085 35.7593C29.6302 37.5179 28.872 39.4463 28.4807 41.5324C29.4957 43.2304 30.2417 45.171 30.6085 47.3663C30.9754 45.171 31.7213 43.2304 32.7363 41.5324Z" fill="#FEDC00"/>
<path d="M32.7241 47.7418C33.8247 45.8013 35.1943 44.2367 36.7351 42.9753C37.0898 40.8892 37.0286 38.8152 36.7229 36.8262C35.2066 38.1482 33.8247 39.7128 32.7364 41.532C33.1032 43.4726 33.1399 45.5466 32.7241 47.7418Z" fill="#FEDC00"/>
<path d="M40.0001 45.692C41.0518 43.8485 41.7121 41.8837 42.1157 39.9067C40.2324 40.6466 38.3859 41.629 36.735 42.9752C36.4171 44.9279 35.7323 46.8927 34.5828 48.7969C36.2948 47.3536 38.1169 46.347 40.0001 45.692Z" fill="#FEDC00"/>
</svg>
